<svg width="156" height="38" viewBox="0 0 156 38" fill="none" xmlns="http://www.w3.org/2000/svg">
<path d="M50 16.8C50 14.7733 50.3358 12.92 51.0074 11.24C51.679 9.53333 52.609 8.08 53.7972 6.88C55.0113 5.65333 56.4449 4.70667 58.0981 4.04C59.7513 3.34667 61.5724 3 63.5614 3C65.5504 3 67.3715 3.34667 69.0247 4.04C70.7038 4.70667 72.1374 5.65333 73.3256 6.88C74.5397 8.08 75.4825 9.53333 76.1542 11.24C76.8258 12.92 77.1616 14.7733 77.1616 16.8C77.1616 19.3867 76.6062 21.6933 75.4955 23.72C74.3847 25.72 72.8736 27.32 70.9621 28.52C71.737 29.1867 72.6282 29.7067 73.6356 30.08C74.643 30.4267 75.7409 30.6 76.9291 30.6V35C74.7593 35 72.7961 34.5867 71.0396 33.76C69.283 32.9333 67.8107 31.7733 66.6224 30.28C65.5892 30.4933 64.5688 30.6 63.5614 30.6C61.5724 30.6 59.7513 30.2667 58.0981 29.6C56.4449 28.9067 55.0113 27.9467 53.7972 26.72C52.609 25.4933 51.679 24.04 51.0074 22.36C50.3358 20.68 50 18.8267 50 16.8ZM54.6496 16.8C54.6496 18.16 54.8692 19.4267 55.3083 20.6C55.7475 21.7467 56.3545 22.7333 57.1294 23.56C57.9302 24.3867 58.873 25.04 59.958 25.52C61.0429 25.9733 62.244 26.2 63.5614 26.2C63.6906 26.2 63.8197 26.2 63.9489 26.2C64.1039 26.2 64.2459 26.1867 64.3751 26.16C63.8326 24.5867 63.5614 22.8667 63.5614 21H67.8236C67.8236 21.6933 67.8752 22.36 67.9786 23C68.0819 23.6133 68.2369 24.2133 68.4435 24.8C69.6834 23.9733 70.665 22.88 71.3883 21.52C72.1374 20.1333 72.5119 18.56 72.5119 16.8C72.5119 15.4133 72.2924 14.1467 71.8532 13C71.4141 11.8533 70.7942 10.8667 69.9934 10.04C69.2185 9.21333 68.2756 8.57333 67.1649 8.12C66.08 7.64 64.8788 7.4 63.5614 7.4C62.244 7.4 61.0429 7.64 59.958 8.12C58.873 8.57333 57.9302 9.21333 57.1294 10.04C56.3545 10.8667 55.7475 11.8533 55.3083 13C54.8692 14.1467 54.6496 15.4133 54.6496 16.8Z" fill="white"/>
<path d="M89.3765 26.4C90.6939 26.4 91.753 25.9867 92.5538 25.16C93.3804 24.3333 93.7937 23.24 93.7937 21.88V11H98.0558V21.72C98.0558 23.08 97.8492 24.3067 97.4359 25.4C97.0226 26.4933 96.4414 27.4267 95.6923 28.2C94.9432 28.9733 94.0262 29.5733 92.9412 30C91.8822 30.4 90.6939 30.6 89.3765 30.6C88.0591 30.6 86.858 30.4 85.7731 30C84.714 29.5733 83.797 28.9733 83.022 28.2C82.2729 27.4267 81.6917 26.4933 81.2784 25.4C80.8651 24.3067 80.6585 23.08 80.6585 21.72V11H84.9206V21.88C84.9206 23.24 85.3339 24.3333 86.1605 25.16C86.9871 25.9867 88.0591 26.4 89.3765 26.4Z" fill="white"/>
<path d="M115.873 20.8V18.2H120.135V23.48C120.135 24.3333 120.367 25 120.832 25.48C121.323 25.96 121.995 26.2 122.847 26.2V30.6C121.659 30.6 120.574 30.36 119.592 29.88C118.637 29.4 117.862 28.7333 117.268 27.88C116.415 28.7333 115.421 29.4 114.284 29.88C113.173 30.36 111.959 30.6 110.642 30.6C109.325 30.6 108.085 30.3467 106.922 29.84C105.76 29.3333 104.752 28.64 103.9 27.76C103.048 26.88 102.376 25.84 101.885 24.64C101.394 23.44 101.149 22.16 101.149 20.8C101.149 19.4133 101.394 18.1333 101.885 16.96C102.376 15.76 103.048 14.72 103.9 13.84C104.752 12.96 105.76 12.2667 106.922 11.76C108.085 11.2533 109.325 11 110.642 11H120.135V15.4H110.642C109.919 15.4 109.234 15.5467 108.588 15.84C107.968 16.1067 107.413 16.48 106.922 16.96C106.457 17.44 106.083 18.0133 105.799 18.68C105.54 19.32 105.411 20.0267 105.411 20.8C105.411 21.5467 105.54 22.2533 105.799 22.92C106.083 23.5867 106.457 24.16 106.922 24.64C107.413 25.12 107.968 25.5067 108.588 25.8C109.234 26.0667 109.919 26.2 110.642 26.2C111.391 26.2 112.076 26.0667 112.696 25.8C113.341 25.5067 113.897 25.12 114.362 24.64C114.827 24.16 115.188 23.5867 115.447 22.92C115.731 22.2533 115.873 21.5467 115.873 20.8Z" fill="white"/>
<path d="M133.875 15C132.532 15 131.447 15.4133 130.62 16.24C129.819 17.04 129.419 18.12 129.419 19.48V30.2H125.157V19.48C125.157 18.2 125.376 17.0133 125.816 15.92C126.255 14.8267 126.862 13.8933 127.637 13.12C128.412 12.32 129.329 11.7067 130.388 11.28C131.447 10.8267 132.609 10.6 133.875 10.6C135.141 10.6 136.303 10.8267 137.362 11.28C138.421 11.7067 139.338 12.32 140.113 13.12C140.888 13.8933 141.482 14.8267 141.896 15.92C142.335 17.0133 142.554 18.2 142.554 19.48V30.2H138.292V19.48C138.292 18.12 137.892 17.04 137.091 16.24C136.29 15.4133 135.218 15 133.875 15Z" fill="white"/>
<path d="M144.957 11H147.282V5.8H151.544V11H156V15.4H151.544V21.8C151.544 23.24 151.919 24.3333 152.668 25.08C153.443 25.8267 154.553 26.2 156 26.2V30.6C154.683 30.6 153.481 30.3867 152.397 29.96C151.337 29.5333 150.42 28.9467 149.646 28.2C148.896 27.4267 148.315 26.4933 147.902 25.4C147.489 24.3067 147.282 23.1067 147.282 21.8V15.4H144.957V11Z" fill="white"/>
<path d="M37.2109 23.2118L29.4448 37.9999L20.6763 23.7518L37.2109 23.2118ZM4.86903 14.7881L12.6352 2.0929e-07L21.4056 14.2481L4.86903 14.7881Z" fill="white" fill-opacity="0.698"/>
<path d="M12.0674 37.9999L0 17.4388H16.9317L29.4458 37.9999H12.0674ZM30.0128 7.59553e-07L42 20.5611H25.1351L12.6363 0L30.0147 7.59636e-07L30.0128 7.59553e-07Z" fill="white"/>
</svg>
